# xmcd
#
# Track frame offsets:
# 150
# 21142
# 49845
# 74557
# 88952
# 116861
# 134279
# 161073
#
# Disc length: 2395 seconds
#
#
# Revision: 0
# Processed by: cddbd v1.5.2PL0 Copyright (c) Steve Scherf et al.
# Submitted via: FreeRIP 2.945 
#
DISCID=75095908
DTITLE=Lionel Riche - Can't Slow Down
DYEAR=1900
DGENRE=Soul
TTITLE0=Can't Slow Down
TTITLE1=All Night Long (All Night)
TTITLE2=Penny Lover
TTITLE3=Stuck On You
TTITLE4=Love Will Find A Way
TTITLE5=The Only One
TTITLE6=Running With The Night
TTITLE7=Hello
EXTD=
EXTT0=
EXTT1=
EXTT2=
EXTT3=
EXTT4=
EXTT5=
EXTT6=
EXTT7=
PLAYORDER=
